#!OML:ASF F:\VICON\USERDATA\INSTALL\rory3\rory3.ASF
:FULLY-SPECIFIED
:DEGREES
274
root -7.50168 15.9024 5.64771 9.69848 22.5461 1.77127
lowerback 27.0712 2.82887 1.33127
upperback 5.82697 4.44775 3.34662
thorax -8.64597 2.14388 1.45444
lowerneck -16.3324 -5.29622 -6.78382
upperneck 15.1311 -5.80677 1.47735
head 7.59373 -3.015 0.924877
rclavicle -1.43125e-014 -2.38542e-014
rhumerus -15.8008 -27.401 -52.9665
rradius 66.3922
rwrist 28.7257
rhand -35.9471 -9.77512
rfingers 7.12502
rthumb -9.05879 -39.5606
lclavicle -1.43125e-014 -2.38542e-014
lhumerus -41.4936 29.4263 52.8367
lradius 63.0471
lwrist -7.52792
lhand -30.2398 40.0386
lfingers 7.12502
lthumb -3.54899 69.9888
rfemur -58.8611 -11.7665 9.02721
rtibia 43.5573
rfoot 20.4485 -2.5448
rtoes 10.3244
lfemur -36.6598 -10.1318 -15.0013
ltibia 72.7363
lfoot -17.913 -13.4086
ltoes -22.2916
275
root -7.55142 15.8748 5.75717 9.72115 23.2281 1.86082
lowerback 27.104 2.71686 1.45929
upperback 5.86679 4.34283 3.34521
thorax -8.6055 2.09386 1.41456
lowerneck -16.2406 -5.47532 -6.78518
upperneck 15.0463 -6.05625 1.47732
head 7.56034 -3.13357 0.898226
rclavicle -6.75868e-014 2.38542e-014
rhumerus -15.5472 -27.4072 -52.9849
rradius 66.2146
rwrist 28.8624
rhand -35.9697 -9.69833
rfingers 7.12502
rthumb -9.08055 -39.4829
lclavicle -6.75868e-014 2.38542e-014
lhumerus -41.8301 29.2842 52.5891
lradius 63.0292
lwrist -7.13465
lhand -29.9814 38.3404
lfingers 7.12502
lthumb -3.29949 68.2946
rfemur -58.8565 -12.1705 9.10409
rtibia 44.9351
rfoot 17.9411 -0.878943
rtoes 7.77185
lfemur -36.4962 -10.3726 -14.6805
ltibia 72.9607
lfoot -18.2769 -13.3896
ltoes -24.3875
276
root -7.59803 15.8433 5.87354 9.89037 23.8001 2.07354
lowerback 26.7753 2.65968 1.30867
upperback 6.02218 4.22266 3.39286
thorax -8.27779 2.0473 1.60873
lowerneck -15.8668 -5.60582 -6.85104
upperneck 14.4603 -6.2531 1.52839
head 7.31526 -3.22495 0.917571
rclavicle 3.89618e-014 -3.02153e-014
rhumerus -15.1116 -27.4539 -53.0881
rradius 66.101
rwrist 29.118
rhand -35.9703 -9.7139
rfingers 7.12502
rthumb -9.08118 -39.4984
lclavicle 3.89618e-014 -3.02153e-014
lhumerus -42.0762 29.7036 52.3111
lradius 62.6564
lwrist -6.8348
lhand -30.2789 38.4656
lfingers 7.12502
lthumb -3.58681 68.4152
rfemur -58.9371 -12.6467 9.16269
rtibia 46.2211
rfoot 15.4788 -0.512497
rtoes 5.71293
lfemur -36.3869 -10.6933 -14.4571
ltibia 73.1564
lfoot -18.0476 -13.7455
ltoes -24.01
277
root -7.64782 15.8123 5.98826 10.0125 24.2202 2.37831
lowerback 26.7192 2.67708 1.11807
upperback 6.11531 4.19172 3.38768
thorax -8.15736 2.03911 1.72589
lowerneck -15.5191 -5.80846 -7.09773
upperneck 14.013 -6.54844 1.82896
head 7.14088 -3.35177 1.03357
rclavicle 2.8625e-014 -3.65764e-014
rhumerus -14.9561 -27.5861 -53.1215
rradius 66.1253
rwrist 29.3026
rhand -35.8807 -9.61477
rfingers 7.12502
rthumb -8.99466 -39.403
lclavicle 2.8625e-014 -3.65764e-014
lhumerus -42.3487 29.9828 52.0937
lradius 62.3443
lwrist -6.43591
lhand -30.7909 41.2331
lfingers 7.12502
lthumb -4.08127 71.1737
rfemur -58.9312 -12.944 9.12512
rtibia 47.3888
rfoot 13.2513 -0.863834
rtoes 5.54421
lfemur -36.2761 -11.0177 -14.3425
ltibia 73.3412
lfoot -17.7079 -14.1161
ltoes -23.2211
278
root -7.70767 15.7844 6.1009 9.93405 24.6049 2.27227
lowerback 26.9954 2.71466 1.25214
upperback 6.03945 4.28907 3.39891
thorax -8.37511 2.08042 1.61767
lowerneck -15.398 -6.04635 -7.19653
upperneck 14.0899 -6.90734 2.10774
head 7.17515 -3.50485 1.10026
rclavicle 8.74653e-015 4.13472e-014
rhumerus -15.2872 -27.6357 -53.089
rradius 66.3888
rwrist 29.3049
rhand -35.7788 -9.57003
rfingers 7.12502
rthumb -8.89636 -39.3625
lclavicle 8.74653e-015 4.13472e-014
lhumerus -42.7464 29.6906 51.9168
lradius 62.3607
lwrist -6.15273
lhand -31.3029 43.5141
lfingers 7.12502
lthumb -4.57559 73.4447
rfemur -58.9003 -12.8562 9.37601
rtibia 48.5102
rfoot 11.0916 -1.13952
rtoes 5.29596
lfemur -36.1676 -11.2285 -13.7431
ltibia 73.4876
lfoot -17.8969 -14.459
ltoes -24.5899
279
root -7.7643 15.7524 6.21754 9.99452 25.1363 2.35168
lowerback 27.4496 2.72521 1.55033
upperback 5.83594 4.39683 3.30778
thorax -8.80494 2.11783 1.28815
lowerneck -15.3896 -6.4637 -7.64822
upperneck 14.2715 -7.47399 2.67744
head 7.30059 -3.74916 1.28714
rclavicle -3.81667e-014 -2.06736e-014
rhumerus -15.6544 -27.985 -52.8672
rradius 66.3812
rwrist 29.3322
rhand -35.804 -9.69467
rfingers 7.12502
rthumb -8.92069 -39.4861
lclavicle -3.81667e-014 -2.06736e-014
lhumerus -43.0218 29.1373 51.8241
lradius 62.2908
lwrist -5.90104
lhand -31.3174 42.6655
lfingers 7.12502
lthumb -4.58961 72.5958
rfemur -58.9755 -13.0577 9.48674
rtibia 49.624
rfoot 8.95201 -0.160226
rtoes 4.27159
lfemur -36.1057 -11.5465 -13.2589
ltibia 73.6251
lfoot -17.7715 -15.0325
ltoes -24.6483
280
root -7.8052 15.7115 6.33085 10.2599 25.786 2.95472
lowerback 27.9318 2.60146 1.77215
upperback 5.59451 4.29353 3.0087
thorax -9.27617 2.05253 0.839856
lowerneck -15.2432 -6.83638 -8.05383
upperneck 14.3877 -7.99303 3.18936
head 7.38023 -3.97417 1.45724
rclavicle 5.56597e-015 -3.81667e-014
rhumerus -16.2154 -28.2647 -52.6691
rradius 66.5552
rwrist 29.5182
rhand -35.5033 -10.1198
rfingers 7.12502
rthumb -8.63049 -39.9234
lclavicle 5.56597e-015 -3.81667e-014
lhumerus -43.3414 28.8669 51.4553
lradius 61.9939
lwrist -5.82436
lhand -31.044 41.2604
lfingers 7.12502
lthumb -4.32559 71.1963
rfemur -59.0909 -13.913 9.26835
rtibia 50.812
rfoot 7.5022 0.967839
rtoes 1.91916
lfemur -35.93 -12.1716 -13.3635
ltibia 73.6823
lfoot -17.2649 -15.6292
ltoes -24.1225
281
root -7.84732 15.6678 6.44377 10.4657 26.2944 3.14626
lowerback 28.1301 2.50067 2.01469
upperback 5.42062 4.2327 2.87396
thorax -9.54373 2.01058 0.5605
lowerneck -14.9677 -7.04187 -7.95084
upperneck 14.3243 -8.31545 3.18096
head 7.32562 -4.12601 1.40882
rclavicle -1.27222e-014 9.54166e-015
rhumerus -16.563 -28.4668 -52.6348
rradius 66.8233
rwrist 30.0184
rhand -35.0791 -10.358
rfingers 7.12502
rthumb -8.22113 -40.1781
lclavicle -1.27222e-014 9.54166e-015
lhumerus -43.7188 28.7974 51.0785
lradius 61.7547
lwrist -6.23532
lhand -30.6896 42.515
lfingers 7.12502
lthumb -3.98342 72.4575
rfemur -59.4476 -14.4474 9.41095
rtibia 52.1182
rfoot 5.95023 1.39466
rtoes -0.790845
lfemur -35.895 -12.7565 -13.0075
ltibia 73.7578
lfoot -16.9863 -16.2555
ltoes -23.3673
282
root -7.89922 15.6409 6.55782 10.5494 26.7244 3.26294
lowerback 28.1868 2.47303 1.96543
upperback 5.43815 4.19185 2.91353
thorax -9.55893 1.99435 0.645394
lowerneck -14.8721 -7.21835 -7.95277
upperneck 14.2402 -8.54999 3.12103
head 7.29231 -4.24422 1.36557
rclavicle -3.57812e-014 -6.36111e-015
rhumerus -16.2728 -28.6314 -52.6739
rradius 66.7114
rwrist 30.2512
rhand -35.1403 -10.2037
rfingers 7.12502
rthumb -8.28021 -40.0214
lclavicle -3.57812e-014 -6.36111e-015
lhumerus -44.1168 28.7715 50.9388
lradius 61.7335
lwrist -6.21101
lhand -30.6236 41.342
lfingers 7.12502
lthumb -3.9197 71.2857
rfemur -59.9183 -14.5634 9.40518
rtibia 53.4237
rfoot 4.99792 0.891058
rtoes 3.39387
lfemur -35.6954 -13.3881 -12.5161
ltibia 73.6678
lfoot -17.1878 -17.0617
ltoes -22.7208
283
root -7.94584 15.5924 6.66857 10.7341 27.0098 3.54756
lowerback 28.2005 2.53814 1.86335
upperback 5.52434 4.24242 2.88951
thorax -9.47342 2.02315 0.660147
lowerneck -14.8852 -7.49101 -8.11044
upperneck 14.0614 -8.90846 3.27733
head 7.27092 -4.40944 1.39903
rclavicle -6.99722e-014 4.29375e-014
rhumerus -16.0617 -29.0196 -52.6569
rradius 66.7402
rwrist 30.0324
rhand -35.2248 -9.45759
rfingers 7.12502
rthumb -8.36169 -39.2721
lclavicle -6.99722e-014 4.29375e-014
lhumerus -44.3352 28.7162 51.0348
lradius 61.8946
lwrist -5.93922
lhand -30.5508 39.9179
lfingers 7.12502
lthumb -3.84934 69.8628
rfemur -60.3759 -14.9786 9.58211
rtibia 54.8844
rfoot 3.75164 1.29341
rtoes 1.21706
lfemur -35.51 -13.9282 -12.2088
ltibia 73.639
lfoot -17.6809 -17.888
ltoes -23.2381
284
root -7.99186 15.5616 6.77625 10.8888 27.331 3.66947
lowerback 28.1591 2.49075 1.86056
upperback 5.5942 4.17989 2.89228
thorax -9.37326 1.9971 0.68979
lowerneck -14.8454 -7.66403 -8.30968
upperneck 13.9029 -9.15196 3.57552
head 7.25051 -4.51032 1.49985
rclavicle 3.65764e-014 -2.8625e-014
rhumerus -15.7876 -29.0576 -52.7821
rradius 66.8835
rwrist 29.7669
rhand -35.0511 -9.5681
rfingers 7.12502
rthumb -8.19405 -39.3892
lclavicle 3.65764e-014 -2.8625e-014
lhumerus -44.8184 28.8136 50.776
lradius 61.9565
lwrist -5.74621
lhand -31.4154 42.5034
lfingers 7.12502
lthumb -4.68424 72.4316
rfemur -61.1572 -15.3811 9.87748
rtibia 56.2636
rfoot 3.08312 1.55009
rtoes 2.03428
lfemur -35.3257 -14.5462 -11.7493
ltibia 73.4787
lfoot -18.3847 -18.4394
ltoes -24.6834
285
root -8.03516 15.5056 6.87899 11.1146 27.5703 3.85787
lowerback 28.1908 2.42201 1.73553
upperback 5.5301 4.05406 2.83916
thorax -9.4653 1.9396 0.74372
lowerneck -14.4721 -7.73924 -8.38025
upperneck 13.6912 -9.30619 3.81009
head 7.14219 -4.5724 1.58348
rclavicle 5.00937e-014 2.70347e-014
rhumerus -15.5722 -28.7265 -52.988
rradius 66.9275
rwrist 29.4681
rhand -34.3152 -10.4732
rfingers 7.12502
rthumb -7.48381 -40.3209
lclavicle 5.00937e-014 2.70347e-014
lhumerus -45.6521 28.7039 50.3016
lradius 62.167
lwrist -5.27082
lhand -32.0889 44.9896
lfingers 7.12502
lthumb -5.3346 74.9025
rfemur -61.8089 -15.7898 10.1568
rtibia 57.7849
rfoot 2.26169 1.80517
rtoes 0.245329
lfemur -35.3037 -15.2519 -11.3699
ltibia 73.3898
lfoot -19.1566 -18.8553
ltoes -25.5277
286
root -8.07613 15.4692 6.98159 11.2365 27.9652 4.14722
lowerback 28.2095 2.46684 1.63144
upperback 5.62091 4.0851 2.86384
thorax -9.38097 1.96024 0.820872
lowerneck -13.9958 -7.94853 -8.4378
upperneck 13.234 -9.6318 3.95757
head 6.94298 -4.72574 1.62413
rclavicle 4.6118e-014 0
rhumerus -15.4637 -29.0416 -52.8572
rradius 66.8575
rwrist 29.742
rhand -33.8647 -11.0546
rfingers 7.12502
rthumb -7.04896 -40.9172
lclavicle 4.6118e-014 0
lhumerus -45.8891 28.5552 50.4877
lradius 62.3218
lwrist -4.91892
lhand -31.4909 43.2234
lfingers 7.12502
lthumb -4.75714 73.15
rfemur -62.3517 -16.231 10.1808
rtibia 59.2157
rfoot 1.75929 1.73919
rtoes 5.88769
lfemur -34.9655 -16.0501 -11.1531
ltibia 73.1761
lfoot -19.7472 -19.1675
ltoes -26.6268
287
root -8.13613 15.4501 7.10928 11.1377 28.7762 4.46352
lowerback 28.2185 2.38893 1.22146
upperback 6.07129 3.90297 3.19292
thorax -8.92465 1.90097 1.49551
lowerneck -14.4523 -8.18995 -8.85635
upperneck 12.9505 -9.84744 4.09802
head 6.9707 -4.83146 1.6943
rclavicle -1.90833e-014 -3.49861e-014
rhumerus -14.4485 -29.4174 -52.9383
rradius 66.6412
rwrist 29.8614
rhand -33.8479 -10.8217
rfingers 7.12502
rthumb -7.03279 -40.6848
lclavicle -1.90833e-014 -3.49861e-014
lhumerus -46.0062 29.3191 50.8776
lradius 62.3377
lwrist -4.83495
lhand -31.21 41.1797
lfingers 7.12502
lthumb -4.48596 71.1122
rfemur -62.3948 -16.689 10.0797
rtibia 60.6763
rfoot 1.07595 1.49698
rtoes 9.80605
lfemur -34.2494 -17.0215 -10.8111
ltibia 72.9046
lfoot -20.1711 -19.6832
ltoes -27.1855
